<svg xmlns="http://www.w3.org/2000/svg" viewBox="0 0 64 64" role="img" aria-label="Cinescope favicon">
  <defs>
    <radialGradient id="bg" cx="32" cy="20" r="34" gradientUnits="userSpaceOnUse">
      <stop offset="0" stop-color="#5aa66b" />
      <stop offset="0.6" stop-color="#448855" />
      <stop offset="1" stop-color="#336644" />
    </radialGradient>
  </defs>
  <circle cx="32" cy="32" r="28" fill="url(#bg)" />
  <circle cx="32" cy="32" r="25.5" fill="none" stroke="#f0f5f1" stroke-opacity="0.28" stroke-width="1.5" />
  <path
    fill="#ffffff"
    d="M39.9 20.1c-2-1.8-4.7-2.8-7.8-2.8-6.8 0-12 5.3-12 14.6 0 8.8 4.8 14.8 12.1 14.8 3 0 5.8-1 7.8-2.9l-2.2-3.8c-1.5 1.4-3.1 2-5.1 2-4.3 0-7.1-3.6-7.1-10.1 0-6.2 3-9.9 7.2-9.9 2.1 0 3.7.7 5.1 2.1z"
  />
</svg>
